<svg width="228" height="228" viewBox="0 0 228 228" fill="none" xmlns="http://www.w3.org/2000/svg">
<path d="M206.456 176V72C206.456 60.9543 197.502 52 186.456 52H41.5439C30.4983 52 21.5439 60.9543 21.5439 72V176" stroke="#6F5A20" stroke-width="3" stroke-linecap="round"/>
<circle cx="114" cy="62.8772" r="2.35088" stroke="#6F5A20" stroke-width="4"/>
<path d="M110.976 96.3021L110.976 96.302C112.628 95.7941 114.415 95.794 116.068 96.302L116.508 94.8714L116.068 96.302L151.681 107.243C153.275 107.734 153.275 109.708 151.681 110.198L116.067 121.139C116.067 121.139 116.067 121.139 116.067 121.139C113.855 121.819 111.962 121.442 110.974 121.139C110.974 121.139 110.974 121.139 110.974 121.139L86.0054 113.467L85.3125 113.255L84.7152 113.665C82.7782 114.997 81.5466 117.115 81.4252 119.514L81.3802 120.404L82.1407 120.869C82.9358 121.355 83.4227 122.14 83.4227 123.02C83.4227 123.833 83.0008 124.564 82.2855 125.071L81.4727 125.647L81.6888 126.62L84.9483 141.287C85.0236 141.626 84.7659 141.948 84.4184 141.948H77.2547C76.9091 141.948 76.6505 141.627 76.726 141.287L79.9854 126.62L80.2016 125.647L79.3888 125.071C78.6735 124.564 78.2516 123.833 78.2516 123.02C78.2516 122.109 78.7664 121.301 79.5927 120.827L80.315 120.413L80.3457 119.581C80.4159 117.68 81.1219 115.932 82.2957 114.481L83.6915 112.756L81.57 112.104L75.3613 110.196L75.3612 110.196C73.7686 109.707 73.7686 107.733 75.3612 107.244L75.3613 107.244L110.976 96.3021ZM118.148 127.913L118.148 127.912L134.957 122.748L136.532 135.351C136.503 135.82 136.194 136.48 135.18 137.279C134.127 138.109 132.511 138.921 130.38 139.631C126.135 141.047 120.174 141.948 113.521 141.948C106.868 141.948 100.908 141.047 96.6622 139.631C94.5315 138.921 92.9155 138.109 91.863 137.279C90.8487 136.48 90.5397 135.82 90.5105 135.351L92.0855 122.749L108.893 127.912C108.893 127.912 108.893 127.912 108.893 127.912C110.692 128.465 114.121 129.149 118.148 127.913Z" stroke="#6F5A20" stroke-width="3"/>
</svg>
