<svg width="228" height="228" viewBox="0 0 228 228" fill="none" xmlns="http://www.w3.org/2000/svg">
<path d="M117.015 102.137L117.455 100.703L117.015 102.137L152.522 113.046C152.522 113.046 152.522 113.046 152.522 113.046C154.107 113.533 154.107 115.495 152.522 115.983C152.522 115.983 152.522 115.983 152.522 115.983L117.013 126.892C114.809 127.569 112.923 127.194 111.938 126.892C111.938 126.892 111.938 126.892 111.938 126.892L87.043 119.243L86.3501 119.03L85.7528 119.44C83.8204 120.769 82.5917 122.882 82.4706 125.275L82.4256 126.165L83.1861 126.631C83.9777 127.115 84.4622 127.895 84.4622 128.771C84.4622 129.58 84.0424 130.308 83.3302 130.813L82.5174 131.389L82.7336 132.362L85.9834 146.986C86.0579 147.321 85.803 147.639 85.4593 147.639H78.3168C77.975 147.639 77.7194 147.321 77.794 146.986L81.0438 132.362L81.26 131.389L80.4472 130.813C79.735 130.308 79.3152 129.58 79.3152 128.771C79.3152 127.864 79.8274 127.06 80.6501 126.589L81.3725 126.175L81.4031 125.343C81.473 123.448 82.1766 121.707 83.3464 120.26L84.7422 118.535L82.6207 117.883L76.4303 115.981L76.4302 115.981C74.8465 115.495 74.8465 113.532 76.4302 113.046L76.4303 113.046L111.939 102.137L111.94 102.136C113.586 101.63 115.367 101.63 117.015 102.137ZM119.091 133.654L119.091 133.654L135.845 128.506L137.415 141.066C137.386 141.532 137.078 142.189 136.068 142.985C135.019 143.812 133.408 144.622 131.284 145.33C127.052 146.74 121.109 147.639 114.476 147.639C107.843 147.639 101.901 146.74 97.6684 145.33C95.5443 144.622 93.9336 143.812 92.8847 142.985C91.8742 142.189 91.5671 141.532 91.538 141.066L93.1076 128.507L109.86 133.654C109.86 133.654 109.86 133.654 109.861 133.654C111.654 134.205 115.074 134.887 119.091 133.654Z" stroke="#6F5A20" stroke-width="3"/>
<path d="M169.31 191V56.9999C169.31 45.9542 160.356 36.9999 149.31 36.9999H78.6902C67.6445 36.9999 58.6902 45.9542 58.6902 56.9999V191" stroke="#6F5A20" stroke-width="3" stroke-linecap="round"/>
<circle cx="114" cy="51.0985" r="2.33803" stroke="#6F5A20" stroke-width="4"/>
</svg>
