<svg width="228" height="228" viewBox="0 0 228 228" fill="none" xmlns="http://www.w3.org/2000/svg">
<path d="M169 190.569V57.4314C169 46.3857 160.046 37.4314 149 37.4314H79C67.9543 37.4314 59 46.3857 59 57.4314V190.569" stroke="#6F5A20" stroke-width="3" stroke-linecap="round"/>
<circle cx="114" cy="51.451" r="2.31373" stroke="#6F5A20" stroke-width="4"/>
<rect x="66.9707" y="69.1275" width="26.1176" height="26.1176" rx="7.5" stroke="#6F5A20" stroke-width="3"/>
<rect x="66.9707" y="100.402" width="26.1176" height="26.1176" rx="7.5" stroke="#6F5A20" stroke-width="3"/>
<rect x="66.9707" y="131.677" width="26.1176" height="26.1176" rx="7.5" stroke="#6F5A20" stroke-width="3"/>
<rect x="66.9707" y="162.951" width="26.1176" height="26.1176" rx="7.5" stroke="#6F5A20" stroke-width="3"/>
<rect x="100.402" y="69.1275" width="26.1176" height="26.1176" rx="7.5" stroke="#6F5A20" stroke-width="3"/>
<rect x="100.402" y="100.402" width="26.1176" height="26.1176" rx="7.5" stroke="#6F5A20" stroke-width="3"/>
<rect x="100.402" y="131.677" width="26.1176" height="26.1176" rx="7.5" stroke="#6F5A20" stroke-width="3"/>
<rect x="100.402" y="162.951" width="26.1176" height="26.1176" rx="7.5" stroke="#6F5A20" stroke-width="3"/>
<rect x="133.833" y="69.1275" width="26.1176" height="26.1176" rx="7.5" stroke="#6F5A20" stroke-width="3"/>
<rect x="133.833" y="100.402" width="26.1176" height="26.1176" rx="7.5" stroke="#6F5A20" stroke-width="3"/>
<rect x="133.833" y="131.677" width="26.1176" height="26.1176" rx="7.5" stroke="#6F5A20" stroke-width="3"/>
<rect x="133.833" y="162.951" width="26.1176" height="26.1176" rx="7.5" stroke="#6F5A20" stroke-width="3"/>
</svg>
